<svg id="visual" viewBox="0 0 960 300" width="960" height="300" xmlns="http://www.w3.org/2000/svg" xmlns:xlink="http://www.w3.org/1999/xlink" version="1.1"><path d="M0 46L11.5 54.5C23 63 46 80 68.8 82.5C91.7 85 114.3 73 137.2 69.5C160 66 183 71 205.8 78.5C228.7 86 251.3 96 274.2 100C297 104 320 102 342.8 89.5C365.7 77 388.3 54 411.2 53C434 52 457 73 480 80.5C503 88 526 82 548.8 72.5C571.7 63 594.3 50 617.2 49.5C640 49 663 61 685.8 59C708.7 57 731.3 41 754.2 40.5C777 40 800 55 822.8 60.5C845.7 66 868.3 62 891.2 65C914 68 937 78 948.5 83L960 88L960 0L948.5 0C937 0 914 0 891.2 0C868.3 0 845.7 0 822.8 0C800 0 777 0 754.2 0C731.3 0 708.7 0 685.8 0C663 0 640 0 617.2 0C594.3 0 571.7 0 548.8 0C526 0 503 0 480 0C457 0 434 0 411.2 0C388.3 0 365.7 0 342.8 0C320 0 297 0 274.2 0C251.3 0 228.7 0 205.8 0C183 0 160 0 137.2 0C114.3 0 91.7 0 68.8 0C46 0 23 0 11.5 0L0 0Z" fill="#000814"></path><path d="M0 94L11.5 99C23 104 46 114 68.8 111C91.7 108 114.3 92 137.2 92C160 92 183 108 205.8 116.5C228.7 125 251.3 126 274.2 126.5C297 127 320 127 342.8 116C365.7 105 388.3 83 411.2 81C434 79 457 97 480 104.5C503 112 526 109 548.8 105.5C571.7 102 594.3 98 617.2 100C640 102 663 110 685.8 105.5C708.7 101 731.3 84 754.2 78C777 72 800 77 822.8 82.5C845.7 88 868.3 94 891.2 97C914 100 937 100 948.5 100L960 100L960 86L948.5 81C937 76 914 66 891.2 63C868.3 60 845.7 64 822.8 58.5C800 53 777 38 754.2 38.5C731.3 39 708.7 55 685.8 57C663 59 640 47 617.2 47.5C594.3 48 571.7 61 548.8 70.5C526 80 503 86 480 78.5C457 71 434 50 411.2 51C388.3 52 365.7 75 342.8 87.5C320 100 297 102 274.2 98C251.3 94 228.7 84 205.8 76.5C183 69 160 64 137.2 67.5C114.3 71 91.7 83 68.8 80.5C46 78 23 61 11.5 52.5L0 44Z" fill="#040f1e"></path><path d="M0 178L11.5 181.5C23 185 46 192 68.8 184C91.7 176 114.3 153 137.2 148.5C160 144 183 158 205.8 172C228.7 186 251.3 200 274.2 202.5C297 205 320 196 342.8 182.5C365.7 169 388.3 151 411.2 151C434 151 457 169 480 189.5C503 210 526 233 548.8 221.5C571.7 210 594.3 164 617.2 158C640 152 663 186 685.8 194.5C708.7 203 731.3 186 754.2 170C777 154 800 139 822.8 132.5C845.7 126 868.3 128 891.2 140.5C914 153 937 176 948.5 187.5L960 199L960 98L948.5 98C937 98 914 98 891.2 95C868.3 92 845.7 86 822.8 80.5C800 75 777 70 754.2 76C731.3 82 708.7 99 685.8 103.5C663 108 640 100 617.2 98C594.3 96 571.7 100 548.8 103.5C526 107 503 110 480 102.5C457 95 434 77 411.2 79C388.3 81 365.7 103 342.8 114C320 125 297 125 274.2 124.5C251.3 124 228.7 123 205.8 114.5C183 106 160 90 137.2 90C114.3 90 91.7 106 68.8 109C46 112 23 102 11.5 97L0 92Z" fill="#051528"></path><path d="M0 241L11.5 245.5C23 250 46 259 68.8 258.5C91.7 258 114.3 248 137.2 243C160 238 183 238 205.8 244.5C228.7 251 251.3 264 274.2 272C297 280 320 283 342.8 280C365.7 277 388.3 268 411.2 263.5C434 259 457 259 480 264C503 269 526 279 548.8 276C571.7 273 594.3 257 617.2 252C640 247 663 253 685.8 256C708.7 259 731.3 259 754.2 256C777 253 800 247 822.8 244C845.7 241 868.3 241 891.2 243C914 245 937 249 948.5 251L960 253L960 197L948.5 185.5C937 174 914 151 891.2 138.5C868.3 126 845.7 124 822.8 130.5C800 137 777 152 754.2 168C731.3 184 708.7 201 685.8 192.5C663 184 640 150 617.2 156C594.3 162 571.7 208 548.8 219.5C526 231 503 208 480 187.5C457 167 434 149 411.2 149C388.3 149 365.7 167 342.8 180.5C320 194 297 203 274.2 200.5C251.3 198 228.7 184 205.8 170C183 156 160 142 137.2 146.5C114.3 151 91.7 174 68.8 182C46 190 23 183 11.5 179.5L0 176Z" fill="#031932"></path><path d="M0 301L11.5 301C23 301 46 301 68.8 301C91.7 301 114.3 301 137.2 301C160 301 183 301 205.8 301C228.7 301 251.3 301 274.2 301C297 301 320 301 342.8 301C365.7 301 388.3 301 411.2 301C434 301 457 301 480 301C503 301 526 301 548.8 301C571.7 301 594.3 301 617.2 301C640 301 663 301 685.8 301C708.7 301 731.3 301 754.2 301C777 301 800 301 822.8 301C845.7 301 868.3 301 891.2 301C914 301 937 301 948.5 301L960 301L960 251L948.5 249C937 247 914 243 891.2 241C868.3 239 845.7 239 822.8 242C800 245 777 251 754.2 254C731.3 257 708.7 257 685.8 254C663 251 640 245 617.2 250C594.3 255 571.7 271 548.8 274C526 277 503 267 480 262C457 257 434 257 411.2 261.5C388.3 266 365.7 275 342.8 278C320 281 297 278 274.2 270C251.3 262 228.7 249 205.8 242.5C183 236 160 236 137.2 241C114.3 246 91.7 256 68.8 256.5C46 257 23 248 11.5 243.5L0 239Z" fill="#001d3d"></path></svg>