<svg id="visual" viewBox="0 0 960 300" width="960" height="300" xmlns="http://www.w3.org/2000/svg" xmlns:xlink="http://www.w3.org/1999/xlink" version="1.1"><path d="M0 127L11.5 119.5C23 112 46 97 68.8 94C91.7 91 114.3 100 137.2 97C160 94 183 79 205.8 78C228.7 77 251.3 90 274.2 90.5C297 91 320 79 342.8 78.5C365.7 78 388.3 89 411.2 85.5C434 82 457 64 480 55C503 46 526 46 548.8 49C571.7 52 594.3 58 617.2 69.5C640 81 663 98 685.8 98.5C708.7 99 731.3 83 754.2 73.5C777 64 800 61 822.8 69C845.7 77 868.3 96 891.2 100C914 104 937 93 948.5 87.5L960 82L960 0L948.5 0C937 0 914 0 891.2 0C868.3 0 845.7 0 822.8 0C800 0 777 0 754.2 0C731.3 0 708.7 0 685.8 0C663 0 640 0 617.2 0C594.3 0 571.7 0 548.8 0C526 0 503 0 480 0C457 0 434 0 411.2 0C388.3 0 365.7 0 342.8 0C320 0 297 0 274.2 0C251.3 0 228.7 0 205.8 0C183 0 160 0 137.2 0C114.3 0 91.7 0 68.8 0C46 0 23 0 11.5 0L0 0Z" fill="#003566"></path><path d="M0 196L11.5 189.5C23 183 46 170 68.8 168C91.7 166 114.3 175 137.2 173C160 171 183 158 205.8 159C228.7 160 251.3 175 274.2 164C297 153 320 116 342.8 114C365.7 112 388.3 145 411.2 146C434 147 457 116 480 101C503 86 526 87 548.8 94C571.7 101 594.3 114 617.2 131.5C640 149 663 171 685.8 164C708.7 157 731.3 121 754.2 110.5C777 100 800 115 822.8 130C845.7 145 868.3 160 891.2 159.5C914 159 937 143 948.5 135L960 127L960 80L948.5 85.5C937 91 914 102 891.2 98C868.3 94 845.7 75 822.8 67C800 59 777 62 754.2 71.5C731.3 81 708.7 97 685.8 96.5C663 96 640 79 617.2 67.5C594.3 56 571.7 50 548.8 47C526 44 503 44 480 53C457 62 434 80 411.2 83.5C388.3 87 365.7 76 342.8 76.5C320 77 297 89 274.2 88.5C251.3 88 228.7 75 205.8 76C183 77 160 92 137.2 95C114.3 98 91.7 89 68.8 92C46 95 23 110 11.5 117.5L0 125Z" fill="#032a50"></path><path d="M0 229L11.5 222C23 215 46 201 68.8 198.5C91.7 196 114.3 205 137.2 215.5C160 226 183 238 205.8 239C228.7 240 251.3 230 274.2 221C297 212 320 204 342.8 206C365.7 208 388.3 220 411.2 223.5C434 227 457 222 480 216C503 210 526 203 548.8 204.5C571.7 206 594.3 216 617.2 220.5C640 225 663 224 685.8 224C708.7 224 731.3 225 754.2 226C777 227 800 228 822.8 225.5C845.7 223 868.3 217 891.2 217C914 217 937 223 948.5 226L960 229L960 125L948.5 133C937 141 914 157 891.2 157.5C868.3 158 845.7 143 822.8 128C800 113 777 98 754.2 108.5C731.3 119 708.7 155 685.8 162C663 169 640 147 617.2 129.5C594.3 112 571.7 99 548.8 92C526 85 503 84 480 99C457 114 434 145 411.2 144C388.3 143 365.7 110 342.8 112C320 114 297 151 274.2 162C251.3 173 228.7 158 205.8 157C183 156 160 169 137.2 171C114.3 173 91.7 164 68.8 166C46 168 23 181 11.5 187.5L0 194Z" fill="#06203b"></path><path d="M0 259L11.5 255.5C23 252 46 245 68.8 239.5C91.7 234 114.3 230 137.2 234.5C160 239 183 252 205.8 257.5C228.7 263 251.3 261 274.2 259C297 257 320 255 342.8 255C365.7 255 388.3 257 411.2 259.5C434 262 457 265 480 263C503 261 526 254 548.8 253C571.7 252 594.3 257 617.2 263C640 269 663 276 685.8 274C708.7 272 731.3 261 754.2 257C777 253 800 256 822.8 256C845.7 256 868.3 253 891.2 252.5C914 252 937 254 948.5 255L960 256L960 227L948.5 224C937 221 914 215 891.2 215C868.3 215 845.7 221 822.8 223.5C800 226 777 225 754.2 224C731.3 223 708.7 222 685.8 222C663 222 640 223 617.2 218.5C594.3 214 571.7 204 548.8 202.5C526 201 503 208 480 214C457 220 434 225 411.2 221.5C388.3 218 365.7 206 342.8 204C320 202 297 210 274.2 219C251.3 228 228.7 238 205.8 237C183 236 160 224 137.2 213.5C114.3 203 91.7 194 68.8 196.5C46 199 23 213 11.5 220L0 227Z" fill="#081627"></path><path d="M0 301L11.5 301C23 301 46 301 68.8 301C91.7 301 114.3 301 137.2 301C160 301 183 301 205.8 301C228.7 301 251.3 301 274.2 301C297 301 320 301 342.8 301C365.7 301 388.3 301 411.2 301C434 301 457 301 480 301C503 301 526 301 548.8 301C571.7 301 594.3 301 617.2 301C640 301 663 301 685.8 301C708.7 301 731.3 301 754.2 301C777 301 800 301 822.8 301C845.7 301 868.3 301 891.2 301C914 301 937 301 948.5 301L960 301L960 254L948.5 253C937 252 914 250 891.2 250.5C868.3 251 845.7 254 822.8 254C800 254 777 251 754.2 255C731.3 259 708.7 270 685.8 272C663 274 640 267 617.2 261C594.3 255 571.7 250 548.8 251C526 252 503 259 480 261C457 263 434 260 411.2 257.5C388.3 255 365.7 253 342.8 253C320 253 297 255 274.2 257C251.3 259 228.7 261 205.8 255.5C183 250 160 237 137.2 232.5C114.3 228 91.7 232 68.8 237.5C46 243 23 250 11.5 253.5L0 257Z" fill="#000814"></path></svg>