<svg id="visual" viewBox="0 0 960 100" width="960" height="100" xmlns="http://www.w3.org/2000/svg" xmlns:xlink="http://www.w3.org/1999/xlink" version="1.1"><path d="M0 11L87 11L87 25L175 25L175 27L262 27L262 14L349 14L349 12L436 12L436 25L524 25L524 25L611 25L611 20L698 20L698 24L785 24L785 20L873 20L873 20L960 20L960 13L960 0L960 0L873 0L873 0L785 0L785 0L698 0L698 0L611 0L611 0L524 0L524 0L436 0L436 0L349 0L349 0L262 0L262 0L175 0L175 0L87 0L87 0L0 0Z" fill="#000814"></path><path d="M0 19L87 19L87 45L175 45L175 34L262 34L262 26L349 26L349 20L436 20L436 35L524 35L524 38L611 38L611 27L698 27L698 37L785 37L785 37L873 37L873 42L960 42L960 27L960 11L960 18L873 18L873 18L785 18L785 22L698 22L698 18L611 18L611 23L524 23L524 23L436 23L436 10L349 10L349 12L262 12L262 25L175 25L175 23L87 23L87 9L0 9Z" fill="#412c51"></path><path d="M0 28L87 28L87 52L175 52L175 49L262 49L262 32L349 32L349 29L436 29L436 44L524 44L524 50L611 50L611 35L698 35L698 46L785 46L785 53L873 53L873 50L960 50L960 40L960 25L960 40L873 40L873 35L785 35L785 35L698 35L698 25L611 25L611 36L524 36L524 33L436 33L436 18L349 18L349 24L262 24L262 32L175 32L175 43L87 43L87 17L0 17Z" fill="#a44068"></path><path d="M0 75L87 75L87 67L175 67L175 78L262 78L262 60L349 60L349 63L436 63L436 62L524 62L524 76L611 76L611 70L698 70L698 81L785 81L785 86L873 86L873 80L960 80L960 59L960 38L960 48L873 48L873 51L785 51L785 44L698 44L698 33L611 33L611 48L524 48L524 42L436 42L436 27L349 27L349 30L262 30L262 47L175 47L175 50L87 50L87 26L0 26Z" fill="#f26d4d"></path><path d="M0 101L87 101L87 101L175 101L175 101L262 101L262 101L349 101L349 101L436 101L436 101L524 101L524 101L611 101L611 101L698 101L698 101L785 101L785 101L873 101L873 101L960 101L960 101L960 57L960 78L873 78L873 84L785 84L785 79L698 79L698 68L611 68L611 74L524 74L524 60L436 60L436 61L349 61L349 58L262 58L262 76L175 76L175 65L87 65L87 73L0 73Z" fill="#ffc300"></path></svg>