<svg id="visual" viewBox="0 0 900 600" width="900" height="600" xmlns="http://www.w3.org/2000/svg" xmlns:xlink="http://www.w3.org/1999/xlink" version="1.1"><g stroke-width="1" stroke-linejoin="bevel"><path d="M436 277L492.3 304L469 242Z" fill="#011b39" stroke="#ffd60a"></path><path d="M492.3 304L528.3 243L469 242Z" fill="#030e1c" stroke="#ffd60a"></path><path d="M436 277L433 349L492.3 304Z" fill="#000814" stroke="#ffd60a"></path><path d="M433 349L492.3 366L492.3 304Z" fill="#051528" stroke="#ffd60a"></path><path d="M585.6 313L567.6 246L528.3 243Z" fill="#001d3d" stroke="#ffd60a"></path><path d="M409.7 186L386.7 237L469 242Z" fill="#030e1c" stroke="#ffd60a"></path><path d="M469 242L386.7 237L436 277Z" fill="#051528" stroke="#ffd60a"></path><path d="M436 277L360.7 322L433 349Z" fill="#051528" stroke="#ffd60a"></path><path d="M585.6 313L528.3 243L492.3 304Z" fill="#000814" stroke="#ffd60a"></path><path d="M578.6 174L504.3 174L528.3 243Z" fill="#041120" stroke="#ffd60a"></path><path d="M528.3 243L504.3 174L469 242Z" fill="#041120" stroke="#ffd60a"></path><path d="M454 164L409.7 186L469 242Z" fill="#000814" stroke="#ffd60a"></path><path d="M504.3 174L454 164L469 242Z" fill="#011b39" stroke="#ffd60a"></path><path d="M386.7 237L360.7 322L436 277Z" fill="#030e1c" stroke="#ffd60a"></path><path d="M578.6 348L585.6 313L492.3 304Z" fill="#051528" stroke="#ffd60a"></path><path d="M360.7 322L359.7 335L433 349Z" fill="#051324" stroke="#ffd60a"></path><path d="M433 349L474 441L492.3 366Z" fill="#000814" stroke="#ffd60a"></path><path d="M492.3 366L578.6 348L492.3 304Z" fill="#051528" stroke="#ffd60a"></path><path d="M386.7 237L337.4 296L360.7 322Z" fill="#04172c" stroke="#ffd60a"></path><path d="M360.7 322L310.4 350L359.7 335Z" fill="#030e1c" stroke="#ffd60a"></path><path d="M328.4 230L337.4 296L386.7 237Z" fill="#020b18" stroke="#ffd60a"></path><path d="M567.6 246L578.6 174L528.3 243Z" fill="#001d3d" stroke="#ffd60a"></path><path d="M533.3 102L427 101L454 164Z" fill="#011b39" stroke="#ffd60a"></path><path d="M616.9 158L578.6 174L652.9 225Z" fill="#051324" stroke="#ffd60a"></path><path d="M322.4 202L328.4 230L386.7 237Z" fill="#030e1c" stroke="#ffd60a"></path><path d="M310.4 350L389.7 405L359.7 335Z" fill="#021a34" stroke="#ffd60a"></path><path d="M359.7 335L389.7 405L433 349Z" fill="#031830" stroke="#ffd60a"></path><path d="M492.3 366L539.3 422L578.6 348Z" fill="#030e1c" stroke="#ffd60a"></path><path d="M474 441L539.3 422L492.3 366Z" fill="#031830" stroke="#ffd60a"></path><path d="M389.7 405L474 441L433 349Z" fill="#021a34" stroke="#ffd60a"></path><path d="M340.4 134L322.4 202L409.7 186Z" fill="#000814" stroke="#ffd60a"></path><path d="M409.7 186L322.4 202L386.7 237Z" fill="#021a34" stroke="#ffd60a"></path><path d="M272.1 324L310.4 350L337.4 296Z" fill="#04172c" stroke="#ffd60a"></path><path d="M578.6 174L567.6 134L504.3 174Z" fill="#051528" stroke="#ffd60a"></path><path d="M509.3 462L556.6 427L539.3 422Z" fill="#051324" stroke="#ffd60a"></path><path d="M539.3 422L556.6 427L578.6 348Z" fill="#000814" stroke="#ffd60a"></path><path d="M337.4 296L310.4 350L360.7 322Z" fill="#051324" stroke="#ffd60a"></path><path d="M272.1 324L337.4 296L267.1 239Z" fill="#031830" stroke="#ffd60a"></path><path d="M427 101L403.7 110L454 164Z" fill="#051528" stroke="#ffd60a"></path><path d="M454 164L403.7 110L409.7 186Z" fill="#000814" stroke="#ffd60a"></path><path d="M533.3 102L454 164L504.3 174Z" fill="#030e1c" stroke="#ffd60a"></path><path d="M567.6 134L533.3 102L504.3 174Z" fill="#021a34" stroke="#ffd60a"></path><path d="M652.9 225L567.6 246L585.6 313Z" fill="#031830" stroke="#ffd60a"></path><path d="M652.9 225L578.6 174L567.6 246Z" fill="#031830" stroke="#ffd60a"></path><path d="M578.6 174L616.9 158L567.6 134Z" fill="#04172c" stroke="#ffd60a"></path><path d="M567.6 134L554.6 81L533.3 102Z" fill="#051528" stroke="#ffd60a"></path><path d="M471 468L509.3 462L474 441Z" fill="#020b18" stroke="#ffd60a"></path><path d="M474 441L509.3 462L539.3 422Z" fill="#011b39" stroke="#ffd60a"></path><path d="M658.9 308L652.9 225L585.6 313Z" fill="#051324" stroke="#ffd60a"></path><path d="M658.9 308L585.6 313L578.6 348Z" fill="#051324" stroke="#ffd60a"></path><path d="M666.9 359L658.9 308L578.6 348Z" fill="#051528" stroke="#ffd60a"></path><path d="M389.7 405L471 468L474 441Z" fill="#011b39" stroke="#ffd60a"></path><path d="M366.7 504L471 468L389.7 405Z" fill="#011b39" stroke="#ffd60a"></path><path d="M403.7 110L340.4 134L409.7 186Z" fill="#04172c" stroke="#ffd60a"></path><path d="M383.7 63L340.4 134L403.7 110Z" fill="#04172c" stroke="#ffd60a"></path><path d="M267.1 239L328.4 230L322.4 202Z" fill="#020b18" stroke="#ffd60a"></path><path d="M267.1 239L337.4 296L328.4 230Z" fill="#04172c" stroke="#ffd60a"></path><path d="M310.4 350L312.4 428L389.7 405Z" fill="#051528" stroke="#ffd60a"></path><path d="M262.1 203L267.1 239L322.4 202Z" fill="#030e1c" stroke="#ffd60a"></path><path d="M666.9 405L578.6 348L556.6 427Z" fill="#031830" stroke="#ffd60a"></path><path d="M666.9 405L666.9 359L578.6 348Z" fill="#011b39" stroke="#ffd60a"></path><path d="M658.9 308L691.1 248L652.9 225Z" fill="#011b39" stroke="#ffd60a"></path><path d="M649.9 80L554.6 81L567.6 134Z" fill="#031830" stroke="#ffd60a"></path><path d="M533.3 102L450 64L427 101Z" fill="#020b18" stroke="#ffd60a"></path><path d="M538.3 64L450 64L533.3 102Z" fill="#051324" stroke="#ffd60a"></path><path d="M427 101L383.7 63L403.7 110Z" fill="#001d3d" stroke="#ffd60a"></path><path d="M255.1 384L312.4 428L310.4 350Z" fill="#000814" stroke="#ffd60a"></path><path d="M256.1 130L262.1 203L322.4 202Z" fill="#000814" stroke="#ffd60a"></path><path d="M196.9 341L255.1 384L272.1 324Z" fill="#000814" stroke="#ffd60a"></path><path d="M720.1 283L691.1 248L658.9 308Z" fill="#001d3d" stroke="#ffd60a"></path><path d="M652.9 225L703.1 171L616.9 158Z" fill="#041120" stroke="#ffd60a"></path><path d="M616.9 158L649.9 80L567.6 134Z" fill="#051528" stroke="#ffd60a"></path><path d="M554.6 81L538.3 64L533.3 102Z" fill="#04172c" stroke="#ffd60a"></path><path d="M554.6 557L577.6 479L509.3 462Z" fill="#041120" stroke="#ffd60a"></path><path d="M509.3 462L577.6 479L556.6 427Z" fill="#000814" stroke="#ffd60a"></path><path d="M431 0L383.7 63L450 64Z" fill="#001d3d" stroke="#ffd60a"></path><path d="M450 64L383.7 63L427 101Z" fill="#030e1c" stroke="#ffd60a"></path><path d="M340.4 134L256.1 130L322.4 202Z" fill="#011b39" stroke="#ffd60a"></path><path d="M617.9 485L666.9 405L556.6 427Z" fill="#011b39" stroke="#ffd60a"></path><path d="M719.1 341L720.1 283L658.9 308Z" fill="#04172c" stroke="#ffd60a"></path><path d="M268.1 441L315.4 459L312.4 428Z" fill="#001d3d" stroke="#ffd60a"></path><path d="M312.4 428L315.4 459L389.7 405Z" fill="#030e1c" stroke="#ffd60a"></path><path d="M471 468L512.3 561L509.3 462Z" fill="#030e1c" stroke="#ffd60a"></path><path d="M272.1 324L255.1 384L310.4 350Z" fill="#051528" stroke="#ffd60a"></path><path d="M210.9 306L272.1 324L267.1 239Z" fill="#04172c" stroke="#ffd60a"></path><path d="M719.1 341L658.9 308L666.9 359Z" fill="#041120" stroke="#ffd60a"></path><path d="M691.1 248L703.1 171L652.9 225Z" fill="#04172c" stroke="#ffd60a"></path><path d="M315.4 459L366.7 504L389.7 405Z" fill="#020b18" stroke="#ffd60a"></path><path d="M554.6 557L617.9 485L577.6 479Z" fill="#021a34" stroke="#ffd60a"></path><path d="M577.6 479L617.9 485L556.6 427Z" fill="#021a34" stroke="#ffd60a"></path><path d="M755.4 177L703.1 171L691.1 248Z" fill="#030e1c" stroke="#ffd60a"></path><path d="M554.6 81L595.6 0L538.3 64Z" fill="#030e1c" stroke="#ffd60a"></path><path d="M748.4 367L719.1 341L666.9 405Z" fill="#001d3d" stroke="#ffd60a"></path><path d="M666.9 405L719.1 341L666.9 359Z" fill="#020b18" stroke="#ffd60a"></path><path d="M366.7 504L433 531L471 468Z" fill="#021a34" stroke="#ffd60a"></path><path d="M303.4 65L256.1 130L340.4 134Z" fill="#051324" stroke="#ffd60a"></path><path d="M166.9 238L210.9 306L267.1 239Z" fill="#051528" stroke="#ffd60a"></path><path d="M255.1 384L268.1 441L312.4 428Z" fill="#000814" stroke="#ffd60a"></path><path d="M326.4 538L364.7 527L366.7 504Z" fill="#041120" stroke="#ffd60a"></path><path d="M214.9 192L267.1 239L262.1 203Z" fill="#001d3d" stroke="#ffd60a"></path><path d="M184.9 435L245.1 489L268.1 441Z" fill="#011b39" stroke="#ffd60a"></path><path d="M703.1 171L663.9 97L616.9 158Z" fill="#020b18" stroke="#ffd60a"></path><path d="M663.9 97L649.9 80L616.9 158Z" fill="#000814" stroke="#ffd60a"></path><path d="M256.1 130L214.9 192L262.1 203Z" fill="#000814" stroke="#ffd60a"></path><path d="M383.7 63L303.4 65L340.4 134Z" fill="#041120" stroke="#ffd60a"></path><path d="M617.9 485L685.1 442L666.9 405Z" fill="#031830" stroke="#ffd60a"></path><path d="M326.4 538L366.7 504L315.4 459Z" fill="#000814" stroke="#ffd60a"></path><path d="M366.7 504L364.7 527L433 531Z" fill="#001d3d" stroke="#ffd60a"></path><path d="M595.6 0L489.3 0L538.3 64Z" fill="#020b18" stroke="#ffd60a"></path><path d="M538.3 64L489.3 0L450 64Z" fill="#041120" stroke="#ffd60a"></path><path d="M383.7 63L360.7 0L303.4 65Z" fill="#031830" stroke="#ffd60a"></path><path d="M489.3 0L431 0L450 64Z" fill="#041120" stroke="#ffd60a"></path><path d="M112.6 301L196.9 341L210.9 306Z" fill="#011b39" stroke="#ffd60a"></path><path d="M210.9 306L196.9 341L272.1 324Z" fill="#051528" stroke="#ffd60a"></path><path d="M719.1 341L755.4 294L720.1 283Z" fill="#001d3d" stroke="#ffd60a"></path><path d="M771.4 240L755.4 177L691.1 248Z" fill="#011b39" stroke="#ffd60a"></path><path d="M748.4 367L755.4 294L719.1 341Z" fill="#000814" stroke="#ffd60a"></path><path d="M490.3 600L512.3 561L433 531Z" fill="#021a34" stroke="#ffd60a"></path><path d="M433 531L512.3 561L471 468Z" fill="#031830" stroke="#ffd60a"></path><path d="M617.9 485L697.1 498L685.1 442Z" fill="#021a34" stroke="#ffd60a"></path><path d="M663.9 97L681.1 75L649.9 80Z" fill="#021a34" stroke="#ffd60a"></path><path d="M649.9 80L595.6 0L554.6 81Z" fill="#04172c" stroke="#ffd60a"></path><path d="M718.1 116L681.1 75L663.9 97Z" fill="#051528" stroke="#ffd60a"></path><path d="M718.1 116L663.9 97L703.1 171Z" fill="#000814" stroke="#ffd60a"></path><path d="M685.1 442L748.4 367L666.9 405Z" fill="#04172c" stroke="#ffd60a"></path><path d="M512.3 561L554.6 557L509.3 462Z" fill="#000814" stroke="#ffd60a"></path><path d="M755.4 177L718.1 116L703.1 171Z" fill="#051528" stroke="#ffd60a"></path><path d="M431 0L360.7 0L383.7 63Z" fill="#04172c" stroke="#ffd60a"></path><path d="M268.1 541L326.4 538L315.4 459Z" fill="#051324" stroke="#ffd60a"></path><path d="M443 600L490.3 600L433 531Z" fill="#051324" stroke="#ffd60a"></path><path d="M245.1 489L315.4 459L268.1 441Z" fill="#000814" stroke="#ffd60a"></path><path d="M771.4 240L691.1 248L720.1 283Z" fill="#011b39" stroke="#ffd60a"></path><path d="M817.7 261L771.4 240L755.4 294Z" fill="#051528" stroke="#ffd60a"></path><path d="M755.4 294L771.4 240L720.1 283Z" fill="#001d3d" stroke="#ffd60a"></path><path d="M631.9 0L595.6 0L649.9 80Z" fill="#011b39" stroke="#ffd60a"></path><path d="M280.1 0L251.1 67L303.4 65Z" fill="#000814" stroke="#ffd60a"></path><path d="M303.4 65L251.1 67L256.1 130Z" fill="#041120" stroke="#ffd60a"></path><path d="M256.1 130L187.9 104L214.9 192Z" fill="#041120" stroke="#ffd60a"></path><path d="M146.6 172L166.9 238L214.9 192Z" fill="#041120" stroke="#ffd60a"></path><path d="M214.9 192L166.9 238L267.1 239Z" fill="#051324" stroke="#ffd60a"></path><path d="M184.9 435L268.1 441L255.1 384Z" fill="#051324" stroke="#ffd60a"></path><path d="M659.9 543L697.1 498L617.9 485Z" fill="#000814" stroke="#ffd60a"></path><path d="M685.1 442L761.4 434L748.4 367Z" fill="#04172c" stroke="#ffd60a"></path><path d="M146.6 172L151.6 252L166.9 238Z" fill="#051528" stroke="#ffd60a"></path><path d="M166.9 238L151.6 252L210.9 306Z" fill="#051324" stroke="#ffd60a"></path><path d="M196.9 341L184.9 435L255.1 384Z" fill="#051528" stroke="#ffd60a"></path><path d="M686.1 0L631.9 0L681.1 75Z" fill="#051324" stroke="#ffd60a"></path><path d="M681.1 75L631.9 0L649.9 80Z" fill="#000814" stroke="#ffd60a"></path><path d="M512.3 561L557.6 600L554.6 557Z" fill="#051324" stroke="#ffd60a"></path><path d="M554.6 557L659.9 543L617.9 485Z" fill="#051528" stroke="#ffd60a"></path><path d="M443 600L433 531L381.7 600Z" fill="#051324" stroke="#ffd60a"></path><path d="M381.7 600L433 531L364.7 527Z" fill="#011b39" stroke="#ffd60a"></path><path d="M645.9 600L659.9 543L554.6 557Z" fill="#001d3d" stroke="#ffd60a"></path><path d="M148.6 372L184.9 435L196.9 341Z" fill="#041120" stroke="#ffd60a"></path><path d="M360.7 0L296.4 0L303.4 65Z" fill="#011b39" stroke="#ffd60a"></path><path d="M183.9 0L204.9 81L251.1 67Z" fill="#051528" stroke="#ffd60a"></path><path d="M251.1 67L204.9 81L256.1 130Z" fill="#030e1c" stroke="#ffd60a"></path><path d="M759.4 462L761.4 434L685.1 442Z" fill="#001d3d" stroke="#ffd60a"></path><path d="M821.7 292L817.7 261L755.4 294Z" fill="#001d3d" stroke="#ffd60a"></path><path d="M759.4 462L685.1 442L697.1 498Z" fill="#021a34" stroke="#ffd60a"></path><path d="M204.9 81L187.9 104L256.1 130Z" fill="#030e1c" stroke="#ffd60a"></path><path d="M201.9 493L268.1 541L245.1 489Z" fill="#041120" stroke="#ffd60a"></path><path d="M245.1 489L268.1 541L315.4 459Z" fill="#041120" stroke="#ffd60a"></path><path d="M333.4 600L381.7 600L364.7 527Z" fill="#051324" stroke="#ffd60a"></path><path d="M490.3 600L557.6 600L512.3 561Z" fill="#04172c" stroke="#ffd60a"></path><path d="M659.9 543L705.1 516L697.1 498Z" fill="#04172c" stroke="#ffd60a"></path><path d="M333.4 600L364.7 527L326.4 538Z" fill="#041120" stroke="#ffd60a"></path><path d="M112.6 301L148.6 372L196.9 341Z" fill="#011b39" stroke="#ffd60a"></path><path d="M296.4 0L280.1 0L303.4 65Z" fill="#020b18" stroke="#ffd60a"></path><path d="M187.9 104L146.6 172L214.9 192Z" fill="#041120" stroke="#ffd60a"></path><path d="M151.6 252L112.6 301L210.9 306Z" fill="#021a34" stroke="#ffd60a"></path><path d="M705.1 516L759.4 462L697.1 498Z" fill="#020b18" stroke="#ffd60a"></path><path d="M184.9 435L201.9 493L245.1 489Z" fill="#04172c" stroke="#ffd60a"></path><path d="M138.6 454L201.9 493L184.9 435Z" fill="#031830" stroke="#ffd60a"></path><path d="M821.7 292L755.4 294L748.4 367Z" fill="#04172c" stroke="#ffd60a"></path><path d="M771.4 240L832.7 188L755.4 177Z" fill="#051528" stroke="#ffd60a"></path><path d="M755.4 177L772.4 99L718.1 116Z" fill="#051528" stroke="#ffd60a"></path><path d="M821.7 292L748.4 367L849.7 369Z" fill="#051324" stroke="#ffd60a"></path><path d="M832.7 188L772.4 99L755.4 177Z" fill="#021a34" stroke="#ffd60a"></path><path d="M718.1 116L772.4 99L681.1 75Z" fill="#041120" stroke="#ffd60a"></path><path d="M795.4 59L686.1 0L681.1 75Z" fill="#011b39" stroke="#ffd60a"></path><path d="M268.1 541L333.4 600L326.4 538Z" fill="#020b18" stroke="#ffd60a"></path><path d="M232.1 600L333.4 600L268.1 541Z" fill="#011b39" stroke="#ffd60a"></path><path d="M813.7 425L748.4 367L761.4 434Z" fill="#001d3d" stroke="#ffd60a"></path><path d="M73.3 280L112.6 301L151.6 252Z" fill="#001d3d" stroke="#ffd60a"></path><path d="M148.6 372L138.6 454L184.9 435Z" fill="#021a34" stroke="#ffd60a"></path><path d="M701.1 600L755.4 550L705.1 516Z" fill="#030e1c" stroke="#ffd60a"></path><path d="M833.7 480L813.7 425L759.4 462Z" fill="#051324" stroke="#ffd60a"></path><path d="M557.6 600L645.9 600L554.6 557Z" fill="#021a34" stroke="#ffd60a"></path><path d="M817.7 261L832.7 188L771.4 240Z" fill="#030e1c" stroke="#ffd60a"></path><path d="M900 232L832.7 188L817.7 261Z" fill="#000814" stroke="#ffd60a"></path><path d="M755.4 550L759.4 462L705.1 516Z" fill="#031830" stroke="#ffd60a"></path><path d="M759.4 462L813.7 425L761.4 434Z" fill="#031830" stroke="#ffd60a"></path><path d="M821.7 292L900 301L817.7 261Z" fill="#04172c" stroke="#ffd60a"></path><path d="M104.6 429L138.6 454L148.6 372Z" fill="#011b39" stroke="#ffd60a"></path><path d="M201.9 493L209.9 600L268.1 541Z" fill="#051324" stroke="#ffd60a"></path><path d="M138.6 454L167.9 515L201.9 493Z" fill="#020b18" stroke="#ffd60a"></path><path d="M813.7 425L849.7 369L748.4 367Z" fill="#011b39" stroke="#ffd60a"></path><path d="M80.3 130L89.3 195L146.6 172Z" fill="#000814" stroke="#ffd60a"></path><path d="M146.6 172L89.3 195L151.6 252Z" fill="#020b18" stroke="#ffd60a"></path><path d="M75.3 367L104.6 429L148.6 372Z" fill="#001d3d" stroke="#ffd60a"></path><path d="M115.6 110L146.6 172L187.9 104Z" fill="#04172c" stroke="#ffd60a"></path><path d="M115.6 110L187.9 104L130.6 41Z" fill="#021a34" stroke="#ffd60a"></path><path d="M851.7 119L795.4 59L772.4 99Z" fill="#04172c" stroke="#ffd60a"></path><path d="M772.4 99L795.4 59L681.1 75Z" fill="#001d3d" stroke="#ffd60a"></path><path d="M130.6 41L187.9 104L204.9 81Z" fill="#051528" stroke="#ffd60a"></path><path d="M701.1 600L705.1 516L659.9 543Z" fill="#051528" stroke="#ffd60a"></path><path d="M900 409L900 369L849.7 369Z" fill="#041120" stroke="#ffd60a"></path><path d="M75.3 367L148.6 372L112.6 301Z" fill="#001d3d" stroke="#ffd60a"></path><path d="M73.3 540L153.6 563L167.9 515Z" fill="#000814" stroke="#ffd60a"></path><path d="M645.9 600L701.1 600L659.9 543Z" fill="#051528" stroke="#ffd60a"></path><path d="M89.3 195L73.3 280L151.6 252Z" fill="#051324" stroke="#ffd60a"></path><path d="M280.1 0L183.9 0L251.1 67Z" fill="#020b18" stroke="#ffd60a"></path><path d="M209.9 600L232.1 600L268.1 541Z" fill="#051528" stroke="#ffd60a"></path><path d="M73.3 280L75.3 367L112.6 301Z" fill="#020b18" stroke="#ffd60a"></path><path d="M900 136L851.7 119L832.7 188Z" fill="#051324" stroke="#ffd60a"></path><path d="M832.7 188L851.7 119L772.4 99Z" fill="#000814" stroke="#ffd60a"></path><path d="M183.9 0L130.6 41L204.9 81Z" fill="#030e1c" stroke="#ffd60a"></path><path d="M115.6 110L80.3 130L146.6 172Z" fill="#041120" stroke="#ffd60a"></path><path d="M153.6 563L209.9 600L167.9 515Z" fill="#020b18" stroke="#ffd60a"></path><path d="M167.9 515L209.9 600L201.9 493Z" fill="#041120" stroke="#ffd60a"></path><path d="M812.7 528L833.7 480L759.4 462Z" fill="#04172c" stroke="#ffd60a"></path><path d="M812.7 528L759.4 462L755.4 550Z" fill="#020b18" stroke="#ffd60a"></path><path d="M49.3 75L80.3 130L115.6 110Z" fill="#020b18" stroke="#ffd60a"></path><path d="M89.3 195L47.3 255L73.3 280Z" fill="#031830" stroke="#ffd60a"></path><path d="M795.4 59L783.4 0L686.1 0Z" fill="#021a34" stroke="#ffd60a"></path><path d="M817.7 0L783.4 0L795.4 59Z" fill="#041120" stroke="#ffd60a"></path><path d="M0 234L47.3 255L0 199Z" fill="#011b39" stroke="#ffd60a"></path><path d="M73.3 280L0 311L75.3 367Z" fill="#030e1c" stroke="#ffd60a"></path><path d="M782.4 600L812.7 528L755.4 550Z" fill="#011b39" stroke="#ffd60a"></path><path d="M183.9 0L145.6 0L130.6 41Z" fill="#020b18" stroke="#ffd60a"></path><path d="M130.6 41L49.3 75L115.6 110Z" fill="#020b18" stroke="#ffd60a"></path><path d="M73.3 540L167.9 515L138.6 454Z" fill="#031830" stroke="#ffd60a"></path><path d="M47.3 474L138.6 454L104.6 429Z" fill="#031830" stroke="#ffd60a"></path><path d="M851.7 119L838.7 55L795.4 59Z" fill="#011b39" stroke="#ffd60a"></path><path d="M900 369L900 301L849.7 369Z" fill="#001d3d" stroke="#ffd60a"></path><path d="M849.7 369L900 301L821.7 292Z" fill="#030e1c" stroke="#ffd60a"></path><path d="M851.7 119L900 49L838.7 55Z" fill="#051324" stroke="#ffd60a"></path><path d="M900 301L900 232L817.7 261Z" fill="#051528" stroke="#ffd60a"></path><path d="M900 232L900 190L832.7 188Z" fill="#001d3d" stroke="#ffd60a"></path><path d="M900 409L813.7 425L833.7 480Z" fill="#030e1c" stroke="#ffd60a"></path><path d="M900 409L849.7 369L813.7 425Z" fill="#030e1c" stroke="#ffd60a"></path><path d="M900 0L817.7 0L838.7 55Z" fill="#041120" stroke="#ffd60a"></path><path d="M838.7 55L817.7 0L795.4 59Z" fill="#001d3d" stroke="#ffd60a"></path><path d="M0 427L50.3 430L75.3 367Z" fill="#051528" stroke="#ffd60a"></path><path d="M75.3 367L50.3 430L104.6 429Z" fill="#001d3d" stroke="#ffd60a"></path><path d="M701.1 600L782.4 600L755.4 550Z" fill="#001d3d" stroke="#ffd60a"></path><path d="M900 475L900 409L833.7 480Z" fill="#051324" stroke="#ffd60a"></path><path d="M900 475L833.7 480L900 517Z" fill="#021a34" stroke="#ffd60a"></path><path d="M900 190L900 136L832.7 188Z" fill="#011b39" stroke="#ffd60a"></path><path d="M50.3 430L47.3 474L104.6 429Z" fill="#051324" stroke="#ffd60a"></path><path d="M0 427L47.3 474L50.3 430Z" fill="#001d3d" stroke="#ffd60a"></path><path d="M46.3 0L49.3 75L130.6 41Z" fill="#030e1c" stroke="#ffd60a"></path><path d="M0 199L47.3 255L89.3 195Z" fill="#020b18" stroke="#ffd60a"></path><path d="M0 234L0 311L47.3 255Z" fill="#001d3d" stroke="#ffd60a"></path><path d="M47.3 255L0 311L73.3 280Z" fill="#000814" stroke="#ffd60a"></path><path d="M73.3 540L126.6 600L153.6 563Z" fill="#051324" stroke="#ffd60a"></path><path d="M153.6 563L126.6 600L209.9 600Z" fill="#041120" stroke="#ffd60a"></path><path d="M0 199L89.3 195L80.3 130Z" fill="#04172c" stroke="#ffd60a"></path><path d="M900 517L833.7 480L812.7 528Z" fill="#021a34" stroke="#ffd60a"></path><path d="M0 311L0 338L75.3 367Z" fill="#020b18" stroke="#ffd60a"></path><path d="M47.3 474L73.3 540L138.6 454Z" fill="#041120" stroke="#ffd60a"></path><path d="M0 127L0 199L80.3 130Z" fill="#011b39" stroke="#ffd60a"></path><path d="M900 136L900 49L851.7 119Z" fill="#031830" stroke="#ffd60a"></path><path d="M849.7 600L900 517L812.7 528Z" fill="#04172c" stroke="#ffd60a"></path><path d="M49.3 75L0 127L80.3 130Z" fill="#021a34" stroke="#ffd60a"></path><path d="M0 338L0 427L75.3 367Z" fill="#000814" stroke="#ffd60a"></path><path d="M0 553L64.3 600L73.3 540Z" fill="#000814" stroke="#ffd60a"></path><path d="M782.4 600L849.7 600L812.7 528Z" fill="#04172c" stroke="#ffd60a"></path><path d="M145.6 0L46.3 0L130.6 41Z" fill="#000814" stroke="#ffd60a"></path><path d="M49.3 75L0 80L0 127Z" fill="#011b39" stroke="#ffd60a"></path><path d="M0 0L0 80L49.3 75Z" fill="#001d3d" stroke="#ffd60a"></path><path d="M900 49L900 0L838.7 55Z" fill="#011b39" stroke="#ffd60a"></path><path d="M0 505L73.3 540L47.3 474Z" fill="#011b39" stroke="#ffd60a"></path><path d="M73.3 540L64.3 600L126.6 600Z" fill="#020b18" stroke="#ffd60a"></path><path d="M0 427L0 505L47.3 474Z" fill="#000814" stroke="#ffd60a"></path><path d="M849.7 600L900 600L900 517Z" fill="#021a34" stroke="#ffd60a"></path><path d="M0 505L0 553L73.3 540Z" fill="#000814" stroke="#ffd60a"></path><path d="M46.3 0L0 0L49.3 75Z" fill="#021a34" stroke="#ffd60a"></path><path d="M0 553L0 600L64.3 600Z" fill="#031830" stroke="#ffd60a"></path></g></svg>