<svg id="visual" viewBox="0 0 960 300" width="960" height="300" xmlns="http://www.w3.org/2000/svg" xmlns:xlink="http://www.w3.org/1999/xlink" version="1.1"><path d="M0 58L11.5 53C23 48 46 38 68.8 39.5C91.7 41 114.3 54 137.2 62C160 70 183 73 205.8 66C228.7 59 251.3 42 274.2 36.5C297 31 320 37 342.8 39.5C365.7 42 388.3 41 411.2 46C434 51 457 62 480 63C503 64 526 55 548.8 53.5C571.7 52 594.3 58 617.2 53.5C640 49 663 34 685.8 32.5C708.7 31 731.3 43 754.2 46.5C777 50 800 45 822.8 41.5C845.7 38 868.3 36 891.2 34.5C914 33 937 32 948.5 31.5L960 31L960 0L948.5 0C937 0 914 0 891.2 0C868.3 0 845.7 0 822.8 0C800 0 777 0 754.2 0C731.3 0 708.7 0 685.8 0C663 0 640 0 617.2 0C594.3 0 571.7 0 548.8 0C526 0 503 0 480 0C457 0 434 0 411.2 0C388.3 0 365.7 0 342.8 0C320 0 297 0 274.2 0C251.3 0 228.7 0 205.8 0C183 0 160 0 137.2 0C114.3 0 91.7 0 68.8 0C46 0 23 0 11.5 0L0 0Z" fill="#001d3d"></path><path d="M0 73L11.5 69.5C23 66 46 59 68.8 63.5C91.7 68 114.3 84 137.2 94.5C160 105 183 110 205.8 100.5C228.7 91 251.3 67 274.2 57.5C297 48 320 53 342.8 55.5C365.7 58 388.3 58 411.2 73.5C434 89 457 120 480 131C503 142 526 133 548.8 133C571.7 133 594.3 142 617.2 135C640 128 663 105 685.8 97.5C708.7 90 731.3 98 754.2 97.5C777 97 800 88 822.8 86C845.7 84 868.3 89 891.2 91.5C914 94 937 94 948.5 94L960 94L960 29L948.5 29.5C937 30 914 31 891.2 32.5C868.3 34 845.7 36 822.8 39.5C800 43 777 48 754.2 44.5C731.3 41 708.7 29 685.8 30.5C663 32 640 47 617.2 51.5C594.3 56 571.7 50 548.8 51.5C526 53 503 62 480 61C457 60 434 49 411.2 44C388.3 39 365.7 40 342.8 37.5C320 35 297 29 274.2 34.5C251.3 40 228.7 57 205.8 64C183 71 160 68 137.2 60C114.3 52 91.7 39 68.8 37.5C46 36 23 46 11.5 51L0 56Z" fill="#002347"></path><path d="M0 127L11.5 120C23 113 46 99 68.8 101.5C91.7 104 114.3 123 137.2 131.5C160 140 183 138 205.8 131.5C228.7 125 251.3 114 274.2 108C297 102 320 101 342.8 102C365.7 103 388.3 106 411.2 119C434 132 457 155 480 159.5C503 164 526 150 548.8 148C571.7 146 594.3 156 617.2 152C640 148 663 130 685.8 123C708.7 116 731.3 120 754.2 122.5C777 125 800 126 822.8 131C845.7 136 868.3 145 891.2 145C914 145 937 136 948.5 131.5L960 127L960 92L948.5 92C937 92 914 92 891.2 89.5C868.3 87 845.7 82 822.8 84C800 86 777 95 754.2 95.5C731.3 96 708.7 88 685.8 95.5C663 103 640 126 617.2 133C594.3 140 571.7 131 548.8 131C526 131 503 140 480 129C457 118 434 87 411.2 71.5C388.3 56 365.7 56 342.8 53.5C320 51 297 46 274.2 55.5C251.3 65 228.7 89 205.8 98.5C183 108 160 103 137.2 92.5C114.3 82 91.7 66 68.8 61.5C46 57 23 64 11.5 67.5L0 71Z" fill="#002951"></path><path d="M0 178L11.5 182C23 186 46 194 68.8 208.5C91.7 223 114.3 244 137.2 242.5C160 241 183 217 205.8 213.5C228.7 210 251.3 227 274.2 236C297 245 320 246 342.8 232C365.7 218 388.3 189 411.2 191C434 193 457 226 480 235C503 244 526 229 548.8 225.5C571.7 222 594.3 230 617.2 226C640 222 663 206 685.8 201.5C708.7 197 731.3 204 754.2 209C777 214 800 217 822.8 224.5C845.7 232 868.3 244 891.2 237C914 230 937 204 948.5 191L960 178L960 125L948.5 129.5C937 134 914 143 891.2 143C868.3 143 845.7 134 822.8 129C800 124 777 123 754.2 120.5C731.3 118 708.7 114 685.8 121C663 128 640 146 617.2 150C594.3 154 571.7 144 548.8 146C526 148 503 162 480 157.5C457 153 434 130 411.2 117C388.3 104 365.7 101 342.8 100C320 99 297 100 274.2 106C251.3 112 228.7 123 205.8 129.5C183 136 160 138 137.2 129.5C114.3 121 91.7 102 68.8 99.5C46 97 23 111 11.5 118L0 125Z" fill="#002f5b"></path><path d="M0 301L11.5 301C23 301 46 301 68.8 301C91.7 301 114.3 301 137.2 301C160 301 183 301 205.8 301C228.7 301 251.3 301 274.2 301C297 301 320 301 342.8 301C365.7 301 388.3 301 411.2 301C434 301 457 301 480 301C503 301 526 301 548.8 301C571.7 301 594.3 301 617.2 301C640 301 663 301 685.8 301C708.7 301 731.3 301 754.2 301C777 301 800 301 822.8 301C845.7 301 868.3 301 891.2 301C914 301 937 301 948.5 301L960 301L960 176L948.5 189C937 202 914 228 891.2 235C868.3 242 845.7 230 822.8 222.5C800 215 777 212 754.2 207C731.3 202 708.7 195 685.8 199.5C663 204 640 220 617.2 224C594.3 228 571.7 220 548.8 223.5C526 227 503 242 480 233C457 224 434 191 411.2 189C388.3 187 365.7 216 342.8 230C320 244 297 243 274.2 234C251.3 225 228.7 208 205.8 211.5C183 215 160 239 137.2 240.5C114.3 242 91.7 221 68.8 206.5C46 192 23 184 11.5 180L0 176Z" fill="#003566"></path></svg>